<?xml version="1.0" standalone="no"?>
<!DOCTYPE svg PUBLIC "-//W3C//DTD SVG 20010904//EN"
 "http://www.w3.org/TR/2001/REC-SVG-20010904/DTD/svg10.dtd">
<svg version="1.0" xmlns="http://www.w3.org/2000/svg"
 width="1280.000000pt" height="1002.000000pt" viewBox="0 0 1280.000000 1002.000000"
 preserveAspectRatio="xMidYMid meet">
<g transform="translate(0.000000,1002.000000) scale(0.100000,-0.100000)"
fill="#000000" stroke="none">
<path d="M4715 9999 c-167 -26 -282 -60 -410 -123 -330 -161 -603 -444 -832
-861 -85 -156 -130 -258 -152 -350 -100 -413 -148 -885 -130 -1290 9 -198 12
-217 70 -580 52 -327 49 -316 65 -220 22 125 57 255 145 527 44 139 98 308
120 376 133 416 352 850 563 1114 111 139 330 296 479 343 256 81 565 -28 913
-321 45 -38 135 -114 200 -169 65 -55 177 -153 248 -219 177 -162 292 -248
400 -301 117 -58 183 -74 332 -82 197 -10 293 24 370 133 105 147 151 326 125
480 -36 208 -204 494 -414 706 -390 394 -1071 741 -1612 822 -60 9 -138 21
-171 26 -85 14 -169 11 -309 -11z"/>
<path d="M8870 9595 c-163 -37 -318 -102 -442 -186 -245 -166 -428 -467 -456
-748 -43 -425 202 -858 592 -1046 177 -85 310 -116 501 -117 149 -1 243 12
368 53 348 113 599 370 711 727 70 224 58 430 -39 656 -142 330 -390 543 -747
642 -78 21 -120 26 -258 30 -122 3 -182 0 -230 -11z"/>
<path d="M12710 7683 c-17 -92 -47 -167 -134 -343 -174 -349 -342 -601 -566
-848 -136 -151 -538 -488 -754 -632 -129 -86 -348 -202 -425 -224 -198 -58
-408 39 -619 284 -82 95 -161 256 -267 545 -188 513 -343 728 -579 804 -93 30
-134 33 -201 16 -80 -21 -155 -74 -233 -165 -186 -219 -239 -540 -147 -896
146 -559 535 -1091 1037 -1418 179 -117 313 -157 548 -163 142 -5 181 -2 272
16 190 38 395 123 626 259 227 135 401 273 597 474 265 270 429 512 605 889
160 342 241 564 286 782 13 67 29 145 35 172 6 28 9 75 6 105 -3 30 -11 133
-18 228 -13 167 -14 172 -35 172 -19 0 -24 -8 -34 -57z"/>
<path d="M4200 5873 c-144 -18 -271 -75 -345 -154 -49 -53 -107 -163 -131
-251 -27 -98 -29 -250 -4 -367 47 -228 128 -344 420 -604 74 -67 139 -126 143
-133 8 -13 -101 -137 -462 -524 -84 -91 -564 -574 -1066 -1075 -502 -500
-1034 -1036 -1181 -1190 -148 -154 -368 -384 -489 -510 -121 -127 -317 -322
-435 -435 -330 -314 -615 -598 -608 -605 41 -41 635 292 1803 1010 422 259
542 332 815 490 494 286 1330 781 1525 903 367 229 632 413 765 531 119 106
163 140 375 291 110 79 228 165 261 191 34 27 70 49 80 49 27 0 216 -103 340
-185 61 -40 145 -106 186 -147 l77 -73 7 -78 c8 -92 7 -95 -82 -204 -128 -160
-259 -250 -672 -463 -169 -87 -449 -233 -622 -325 -512 -270 -901 -458 -1320
-634 -161 -68 -321 -150 -327 -167 -10 -29 280 -34 555 -9 92 8 223 20 292 26
316 27 558 69 802 138 95 27 319 88 498 136 762 202 1074 314 1375 490 399
235 689 539 827 870 33 78 37 100 38 171 0 147 -58 311 -176 491 -63 98 -70
106 -274 353 -166 201 -504 545 -694 706 -72 60 -166 142 -210 183 -357 327
-863 694 -1141 827 -206 98 -553 233 -653 254 -97 19 -235 31 -292 23z"/>
</g>
</svg>
